<svg height="53" viewBox="0 0 190 53" width="190" xmlns="http://www.w3.org/2000/svg"><path d="m43.8854878 88.4912295c-.0159182.0634346-.0318362.118939-.0477544.166515-.0159182.1427278-.0477542.2775243-.0955088.4043935-.0795911.2378797-.1671399.4757559-.2626492.7136356-.0477547.0951519-.0875496.1982316-.119386.3092421-.0318365.0317173-.0636724.0555049-.0955088.0713636-.1114275.0951518-.2148944.1982315-.3104036.3092421-.2069368.3488902-.4138705.7057045-.6208072 1.0704534-.1591822.269597-.3183619.5312608-.477544.7849991 2.0375312-1.078388 4.051155-2.2043352 6.0409316-3.3778752 2.5309959-1.5065716 4.9107331-3.2668552 7.1392829-5.2809035 1.9897766-1.7444513 3.6611639-3.7267527 5.014212-5.9469635 1.0506021-1.665158 1.8465008-3.3540788 2.3877201-5.0668128.0955092-.3330316.1671401-.6343414.2148948-.9039384-.3183643-.0792933-.7003957-.1347977-1.1461056-.166515-.7481561-.047576-1.5201778-.047576-2.3160885 0-1.3212117.0634346-2.6662805.3964612-4.0352468.9990898-.1273457.047576-.2546895.1229034-.3820352.2259846-.1273457.1030813-.2308125.2101255-.3104036.3211361-.8436653 1.17354-1.655482 2.3549915-2.4354744 3.5443902-.6526468 1.0149535-1.2893657 2.037821-1.9101761 3.0686331-.3661189.6026287-.7401913 1.1973191-1.1222284 1.784089l-1.2893688 2.0457555c-.2387732.3806075-.4775428.7532802-.716316 1.1180291-.1273457.1903038-.2467305.3806047-.358158.5709085l-.1671404.2616664c-.0159182 0-.0397952-.0079292-.0716316-.0237879h-.0238772c.0159182-.0317173.0318362-.0555049.0477544-.0713635.1591821-.3488903.3183619-.6898461.477544-1.0228778-.0159182-.0158586-.0318362-.0237878-.0477544-.0237878h-.0238772c-.5093828.8722257-1.026717 1.7682259-1.552018 2.6880275-.3183643.5550527-.6446827 1.1259554-.9789652 1.7127254 0-.1427278-.0039795-.2497721-.0119386-.321136s-.0119386-.1387621-.0119386-.2021967l-.238772.1427271zm-.5252984 5.7328727c.971011-.5074767 1.9340484-1.0308043 2.8891412-1.5699983-.7640742.3330316-1.528137.7374211-2.2922112 1.2131805-.1910186.1268692-.3899933.2458073-.59693.3568178zm-2.8413869-5.4236306-.477544.3330299.0716316.0713636.0238772-.0237878c.0477547-.0158587.1034676-.0317171.1671404-.0475758v-.0237878c.0636729-.1110105.1353038-.2140902.2148948-.3092421zm.8595793-1.7603012c-.0159183 0-.0238772.0079292-.0238772.0237879v.0713635h.1432632l.0238772.0237879.119386-.2140907c.079591-.1110105.1512219-.2299486.2148948-.3568178zm15.1142677-20.3148271c-.0159182.0634346-.0238772.118939-.0238772.166515.0318364 0 .0716314-.0079292.119386-.0237879.9391746-.1110105 1.8783351-.2140902 2.8175096-.3092421.0159182-.0475759.0238772-.0872219.0238772-.1189392.0159182-.0317173.0238772-.0555049.0238772-.0713636-.1910185.0158587-.3899932.0396463-.59693.0713636-.7799924.0951519-1.5679321.1903028-2.3638428.2854542zm-15.1858993 25.9049727c.0477546-.0792932.0875495-.1665145.119386-.2616663.0477546-.0951519.091529-.174444.1313246-.2378786.0397955-.0634346.0756109-.1030806.1074474-.1189392.1751003-.0158587.2984646-.0753277.3700966-.178409.0716319-.1030812.1154063-.2180546.1313246-.3449238.0318364-.0792933.0636723-.1506561.0955088-.2140907.1273457-.2378797.1989766-.4836851.2148948-.7374235.0159182-.1110105.0397951-.2220194.0716316-.3330299-.2706097.1903037-.5412152.3885339-.8118248.5946963-.222855.1585865-.4377477.3171706-.6446844.4757571v.0237878l.0477544.0475757c.1273457-.0475759.2626484-.0951511.4059124-.1427271.1273457-.0475759.2785664-.1030804.4536668-.166515-.4616282.6819219-.8754956 1.3083291-1.2416145 1.8792405.1114275-.0634346.2228534-.118939.3342809-.166515.0477546-.0317173.0875495-.0555049.119386-.0713635zm2.5787376-4.1390865c.0318364-.047576.0557134-.0951512.0716316-.1427271.0955093-.1268692.1750991-.2537365.238772-.3806057.0159182-.0158586.0119387-.031717-.0119386-.0475757-.0238773-.0158586-.0517338-.0317171-.0835702-.0475757-.0318364-.0158587-.0557134-.0317171-.0716316-.0475757h-.0477544c-.5412193.4440421-1.0665124.8960068-1.5758952 1.3559077 0 .0158586-.0039795.0277524-.0119386.0356817-.0079591.0079294-.0039796.0198232.0119386.0356818v.0237879c.079591.0158586.1671399.0237878.2626492.0237878.0636728.0158587.1273447.0237879.1910176.0237879-.0159182.0951519-.0318362.1982315-.0477544.3092421-.0159182.1110105-.0397952.2537362-.0716316.4281813.079591-.0792932.1432629-.150656.1910176-.2140906.1114275-.0951519.1750994-.1665148.1910176-.2140907.0159182-.3964662.2308108-.6819176.6446844-.8563628.0159182 0 .0318362-.019823.0477544-.0594696s.0238772-.0832572.0238772-.1308332zm22.181919-13.7255916c.0795911.9832362-.2069325 2.0219621-.8595792 3.1162088-.1751004.317173-.3104031.6501996-.4059124.9990899-.0636729.3013143-.1671397.5867657-.3104036.8563627-.44571.8246497-.9550852 1.6334287-1.5281408 2.4263611-.668565.9515189-1.3689558 1.8950943-2.1011937 2.8307546-.079591.0951519-.1591809.1982316-.238772.3092421-.0477546.0634346-.115406.118939-.2029562.166515-.0875501.0475759-.1711195.0872219-.2507106.1189392-.0159182 0-.0318361-.0158584-.0477544-.0475757l-.0477544-.0951514c-.0159182-.0475759-.0397951-.087222-.0716316-.1189393l-.358158.4519693-.1432632.1903028h.0238772c.0477547 0 .0955086.0039646.1432632.0118939.0477547.0079293.1034676.011894.1671404.011894-.0477546.0317172-.0875495.0634341-.119386.0951514-.0636728.0475759-.1193857.0872219-.1671404.1189392-.0636728.047576-.1432627.0951512-.238772.1427272-.079591.0475759-.1552014.0911865-.2268334.1308332-.0716319.0396466-.1154064.075328-.1313246.1070453-.0477546.317173-.1711189.5788367-.3700966.7849992-.1989776.2061624-.4178498.3964633-.656623.5709085-.0159182 0-.0238772.0079292-.0238772.0237878-.4775464.3488903-.9710036.6819169-1.4803864.9990899-.222855.1427278-.4457066.2933827-.6685616.4519692.0955093.0158586.1830581.0317171.2626492.0475757 0 .0158586.007959.0396463.0238772.0713636s.0397952.0634341.0716316.0951514c-.0477546.0158586-.0875496.0237878-.119386.0237878-.0795911.0158587-.1512219.0317171-.2148948.0475757-.8277471.317173-1.5997688.7770669-2.3160884 1.3796956-.3183643.2378797-.6367238.4598974-.955088.6660599-.0636729.0475759-.1273448.0872219-.1910176.1189392-.6048921.4123249-1.2177341.7929267-1.8385445 1.141817-.4297917.2220211-.843659.4678265-1.2416144.7374235-.5889739.3806075-1.2018159.7136342-1.8385444.9990898-.7959106.3488903-1.5918094.7770674-2.38772 1.2845441-.5093828.3013144-1.018758.594695-1.5281408.8801506-.7163196.3488903-1.4405874.6739877-2.1728252.975302-.3183643.1268692-.6287648.2616657-.9312109.4043935-.4138735.1744452-.8277408.3568169-1.2416144.5471207l-1.2416144.5233328-.119386.0951514-.0955088.0475757c-.0318364.0158586-.0636724.0237878-.0955088.0237878-.3342825.0158587-.58897.1149738-.7640704.2973482-.1751003.1823742-.3263211.4004272-.4536668.6541662-.0795911.142728-.1591809.269595-.238772.380605-.0955093.142728-.1750991.293383-.238772.45197-.0795911.222021-.1910169.404392-.3342808.54712-.4297918.444042-.7003973.919795-.8118248 1.427272-.0955093.317172-.2308121.618482-.4059124.903938-.0477547.063435-.16316.003966-.3462194-.178409-.1830595-.182374-.3661162-.448003-.5491756-.796893-.1830595-.34889-.2905058-.75328-.3223422-1.213181-.222855-.142727-.4656041-.471789-.7282546-.987196-.2626506-.515406-.3541789-1.1140606-.2745878-1.7959825l-.5730528-.3330299c-.5253011-.3647489-.6367269-.9435809-.3342808-1.7365133-.222855-.1427279-.4536657-.2775244-.6924389-.4043936-.3342824-.2061624-.5054007-.5154014-.5136824-.9277262-.0076365-.4123249.1316458-.8325728.4181736-1.2607563.143264-.2061624.2944847-.4519678.4536668-.7374235.0795911-.1427278.175099-.3013119.2865265-.475757.0159182.222021.0397951.4281804.0716316.6184842.0636728.4123248.1114267.7929267.1432632 1.1418169.0159182.4599008.2228518.7057062.6208072.7374235.0477546-.1110105.1114265-.2299486.1910176-.3568178l.0477544.33303c.5571374-.0951519 1.1142665-.21409 1.671404-.3568179h.0477544c.0636728-.0158586.1273447-.0475754.1910176-.0951514.0636728-.0475759.1114268-.0951511.1432632-.1427271.7004014-1.17354 1.4007922-2.3391332 2.1011936-3.4968145l2.1967024-3.6633295c.6208103-.9832362 1.2336523-1.9743868 1.8385444-2.9734817l1.2416145-1.9981797c.525301-.856367 1.0505941-1.7285796 1.5758952-2.6166639-.0159182-.047576-.0238772-.0951512-.0238772-.1427271-.0318365-.2061625-.0795904-.4043926-.1432632-.5946964-.0636729-.2537384-.1114268-.5154021-.1432632-.7849992-.1910186-.0317173-.3541778-.1030801-.4894826-.2140906-.1353048-.1110106-.2268332-.2933823-.2745878-.5471207-.0318365-.2061624-.0716314-.4123217-.119386-.6184842-.0795911-.2537384-.1313245-.5193667-.1552018-.7968931-.0238774-.2775263.0198971-.5986591.1313246-.9634081.0477546-.1744451.0636726-.3488876.0477544-.5233327 0-.1744452.0238769-.3488877.0716316-.5233328.0477546-.1744452.1671394-.3488877.358158-.5233328l.0477544-.0475757c1.1301931-.9832362 2.2842462-1.9426701 3.462194-2.8783303.8277471-.6184873 1.6793587-1.1735317 2.5548604-1.6651498.4138736-.2378797.8356999-.4598975 1.2654916-.6660599.4775464-.2220211.9471267-.4678264 1.4087549-.7374234.1273457-.0951519.25071-.2220192.3700966-.3806057s.2268329-.3171706.3223422-.4757571l.0955088-.1427271c.5571374-.9356603 1.1381435-1.1259612 1.7430356-.5709085.3342825.3330316.7799857.3726776 1.3371232.1189393.9073381-.4599008 1.7748677-.7294938 2.6026148-.8087871.8277471-.0792932 1.6395638-.0951516 2.4354744-.0475757 2.4036502.047576 3.8760628 1.1497355 4.4172821 3.3065117 0 .0317173.007959.0634341.0238772.0951514v.0475757c.4775464.5074768.8118238 1.1814592 1.0028424 2.0219676.2706096 1.0625294.4297894 2.1805474.477544 3.3540874zm15.2605992.3806056c.1432639.5709114.2148948 1.1893894.2148948 1.8554526v.1427272c0 .1585864-.0557129.3409582-.1671404.5471206-.0477546.0792932-.0875496.1665145-.119386.2616664-.0636728-.0317173-.1193858-.0634341-.1671404-.0951514-.1432639-.047576-.2626487-.1110096-.358158-.1903029-.2865278-.3647489-.7322311-.5590144-1.3371232-.5828024s-1.2336521.1387608-1.8862988.487651c-2.6424234 1.5700062-5.0380785 3.5126615-7.1870373 5.8280242-.3183643.3488903-.6526417.7136337-1.0028424 1.0942413-.0636729.2537383.023876.4202517.2626492.4995449.1114275 0 .2228533.0079292.3342808.0237878.0955093-.0158586.262648-.0555046.5014212-.1189392.3183643-.0792933.6884572-.1665145 1.1102898-.2616664.4218327-.0951519.7919256-.1704794 1.1102898-.2259846.3183643-.0555053.493462-.0673991.5252984-.0356818l.0477544.0237878c.0318365.0158587.0795904.0356817.1432632.0594697.0636729.023788.1353038.0515402.2148948.0832575.0636729.0158586.1273448.0356816.1910176.0594696.0636729.023788.1154063.043611.1552018.0594696.0397956.0158587.0517341.0317171.0358158.0475757.0318365.0158587-.0557124.0594693-.2626492.1308332-.2069367.071364-.4616243.1546206-.7640704.2497725-.2865278.0951519-.5571334.1863378-.8118248.2735603-.2546914.0872226-.4297891.16255-.5252984.2259846.2706096-.0475759.5571332-.1189388.8595792-.2140906.2069368-.047576.393973-.0911866.5611142-.1308332.1671413-.0396467.2825466-.0515405.3462194-.0356818-.0318364.0158586-.0198979.0237878.0358158.0237878.0557138 0 .1472421-.0118938.2745878-.0356817.1273457-.023788.2706075-.0515402.4297896-.0832575.1910186-.047576.3780548-.087222.5611142-.1189393.1830595-.0317173.3143828-.0515403.3939738-.0594696.0795911-.0079294.0795911.0118936 0 .0594696.7004014-.2378797 1.2057971-.3607824 1.5162023-.3687117.3104051-.0079294.4894823.0594689.537237.2021967.0477546.1427279.0198982.321135-.0835702.5352267-.1034684.2140918-.2109147.4162865-.3223422.6065903-.0795911.1268692-.143263.2299489-.1910176.3092421-.0477547.0792932-.0557137.1268685-.0238772.1427271-.5093829.1903038-1.2217122.4559322-2.1370095.7968931-.9152972.340961-1.8823141.6938106-2.9010798 1.0585595l-3.939738 1.4272712c-.0795911.0317173-.16714.0634342-.2626492.0951515-.3820371.1585864-.7561095.2854537-1.1222284.3806056-.2546915.047576-.525297.0713636-.8118248.0713636h-.5014213l-.3342808.5233328c-.827747 1.125964-1.5758918 2.3312032-2.2444568 3.6157537.9232564.0317173 1.9022118-.1189376 2.9368956-.4519692 2.7697691-.903943 5.4837837-2.1726158 8.1421253-3.8060566.0955093-.0634346.1989761-.118939.3104036-.166515l.1910176-.0475757c.0477547 0 .0955086-.0079292.1432632-.0237878l-.1432632.3330299c-.0477546.1268692-.1114265.2775241-.1910176.4519692.0795911-.0317173.151222-.0555049.2148948-.0713635.143264-.0317173.2785667-.0713633.4059124-.1189393.1114275-.0475759.2308123-.1030804.358158-.166515.0477547-.0158586.0955086-.0396462.1432632-.0713635l.0477544.0951514c.0159183.0317173.0238772.0555049.0238772.0713635-.5093828.3330317-1.0267169.6660583-1.552018.9990899l-1.4803864.9515142c.0159182.0158586.0238772.0396462.0238772.0713635.0159182.0158587.0238772.0317171.0238772.0475757.0955093-.0475759.1910171-.0872219.2865264-.1189392.6367285-.2854557 1.2814065-.5629779 1.9340532-.8325749v.1903028l-.4297896.2378785c-.3979553.1744452-.7799867.3726753-1.1461056.5946964-.0955093.0475759-.1750991.1229034-.238772.2259846-.0636728.1030812-.1193857.2021963-.1671404.2973482-.0636728.0951519-.1631602.2021961-.298465.321136s-.2785666.2220195-.4297896.3092421-.2745873.1308332-.3700966.1308332c-.0477546 0-.0955086.0118938-.1432632.0356818-.0477546.0237879-.0955086.0515402-.1432632.0832575l-.0955088.0475757-1.1461056.6184842-.2865264.1427271c.0159182.0317173.0318362.0872217.0477544.166515l.0238772.0237878c1.719167-.7612151 3.4223903-1.6492861 5.1097208-2.6642396.1114275-.0634346.2228534-.118939.3342808-.166515.0477547-.0158586.1114266-.031717.1910176-.0475757.0318365-.0158586.0716314-.0237878.119386-.0237878-.0955092.222021-.1989761.4757556-.3104036.7612113.0795911-.0158587.151222-.0317171.2148948-.0475757.143264-.047576.2785667-.087222.4059125-.1189393.1114274-.0475759.2228533-.1030804.3342808-.166515.0636728-.0317173.1193857-.0555049.1671404-.0713635.0159182.0158586.0238772.0396462.0238772.0713635l.0477544.0951514-1.3371233.8563628c-.5730556.3647489-1.1381437.7294923-1.6952812 1.0942412 0 .0158587.007959.0317171.0238772.0475758v.0475757c.748156-.317173 1.4883418-.6343412 2.2205796-.9515142 0 .047576.007959.0951512.0238772.1427271v.0713636c-.1591821.0634346-.3104028.1347974-.4536668.2140907-.3820371.1903038-.7640685.3885339-1.1461056.5946963-.079591.047576-.1552014.1229034-.2268334.2259846-.0716319.1030813-.1313243.2021963-.179079.2973482-.0477546.1110105-.139283.2220194-.2745878.33303-.1353048.1110105-.282546.2101256-.4417282.2973481-.1591821.0872226-.2865259.1308332-.3820352.1308332-.0318364.0158587-.0716313.0317171-.119386.0475757-.0477546.0158587-.0955085.0396463-.1432632.0713636-.0477546.0317173-.0875496.0555049-.119386.0713636-.3661189.1903037-.7401913.3885339-1.1222284.5946963l-.2865264.1427271c.0159182.047576.0318362.1030804.0477544.166515s.0318362.1427266.0477544.2378785c.0159182.0158587.0238772.0317171.0238772.0475757-.0795911.0158587-.1512219.0237879-.2148948.0237879-.1273457-.0158586-.2228536-.0000002-.2865264.0475757-.6526467.5074768-1.3291606.864291-2.029562 1.0704534-.3661189.1268692-.7322323.2695949-1.0983512.4281814-.0955093.0475759-.1989761.0713636-.3104036.0713636s-.2188739.019823-.3223422.0594696c-.1034684.0396466-.2029558.1466909-.298465.321136-.0318365.0317173-.1034674.0634341-.2148948.0951514-.1114275.0317173-.2387713.0555049-.3820353.0713636-.1432639.0158586-.2706077.031717-.3820352.0475757-.7799924.0792932-1.5201782.0634348-2.2205796-.0475757-.5571374-.1110105-.9948817-.3449221-1.313246-.7017417s-.6048878-.7572445-.8595792-1.2012866l-.238772-.3806057c-.3661189-.539194-.6367245-1.1338844-.8118248-1.784089-.0795911-.1268692-.1591809-.2458073-.238772-.3568178-.3820371-.5550527-.6526427-1.1814599-.8118248-1.8792405-.1273457-.6819218-.0557148-1.3915857.2148948-2.1290129.2706096-.7374271.628764-1.4629494 1.074474-2.1765886.7799924-1.3321265 1.6156861-2.6404453 2.507106-3.9249959 1.6873306-2.4263732 3.5815695-4.7179135 5.6827737-6.8746897.1432639-.1268692.3024436-.2458073.477544-.3568178.1273457-.0792932.2467305-.1585853.358158-.2378785l1.0028424-.8563628c.5730557-.4916181 1.1540617-.9673704 1.7430356-1.4272712.0955093-.0792932.1989761-.1665145.3104036-.2616664 1.2257024-.9673775 2.4752634-1.8713069 3.7487205-2.7118153 1.1461113-.6977805 2.2842465-.9911611 3.4144396-.8801506.4775464.0475759.8118238.2220185 1.0028424.5233328s.3422393.6422701.4536668 1.0228777v.0475757c.0795911.2220211.135304.4598972.1671404.7136356.2387732.1427279.4218299.340958.5491756.5946964.1273457.2537383.2308125.5233313.3104036.808787zm14.4965288 13.3925617c0-.1268692.039795-.2616657.119386-.4043935.0636729-.1427278.1034678-.2775243.119386-.4043935s-.0477537-.2378781-.1910176-.33303l-.5730528 1.3321198c.1114275-.0317173.2148943-.0634341.3104036-.0951514.0636729-.0317173.1353037-.0634341.2148948-.0951514zm-2.3638428-6.0421149c-.0318364.0634346-.0716316.1268683-.119386.1903029-.0159182.0317173-.0238772.0555049-.0238772.0713635l.1432632-.0951514zm-9.0972133 13.511501-.0119386-.0237879c-.0079591-.0158586-.0198976-.031717-.0358158-.0475757-.0159182-.0158586-.0477542-.0436108-.0955088-.0832575-.0477546-.0396466-.1034676-.075328-.1671404-.1070453-.0636729-.0634346-.0994883-.1546205-.1074474-.2735603-.0079591-.1189399.0039794-.2339134.0358158-.3449239l.3342808-1.3321198c-.0636729-.0634346-.1353037-.1268683-.2148948-.1903028-.0636729-.047576-.0994883-.1308326-.1074474-.2497725s.0039794-.2339134.0358158-.3449239c.5093828-2.2836454 1.2336506-4.5593273 2.1728252-6.827114l-.8118248 1.1893927c-.7799924 1.1101054-1.5520142 2.2201941-2.3160884 3.3302995-.9550928 1.4114197-1.8942533 2.8307475-2.8175096 4.2580258-.2387732.3964662-.4775429.7849973-.716316 1.1656049-.4297918.808791-.931208 1.5699947-1.5042637 2.2836339-.4934646.6184873-.84366 1.2369653-1.0505968 1.8554525-.0955093.253738-.1989761.499544-.3104036.737424-.0955093.174445-.1910171.301312-.2865264.380605s-.2069351.079293-.3342808 0c-.1910185-.158586-.3661163-.3251-.5252984-.499545-.2546914-.269597-.5332559-.499544-.835702-.689847 0-.015859-.007959-.023788-.0238772-.023788-.3502007-.2061627-.4855035-.4678265-.4059124-.7849995-.0159182-.0792932-.0397952-.1585853-.0716316-.2378785-.0636729-.2537384-.1392832-.4836854-.2268334-.6898478s-.2029555-.3488881-.3462194-.4281813c-.3342825-.2061625-.4656058-.4519678-.3939738-.7374235.0716319-.2854557.2029552-.5946947.3939738-.9277263.0318364-.0317173.0557134-.0713633.0716316-.1189393.6367285-1.1576813 1.3132424-2.2915577 2.029562-3.4016631.3024461-.4440421.6287645-.8801484.9789652-1.3083319.2706096-.317173.5252972-.6422704.7640704-.975302.3661189-.5391941.7322323-1.0704508 1.0983512-1.5937862.3502007-.5391941.7163141-1.07838 1.0983513-1.6175741.7004013-.9832362 1.4087512-1.9585284 2.1250708-2.925906.4457099-.6184873.8914132-1.2290361 1.3371232-1.8316647.1114275-.1427279.2228533-.3171704.3342808-.5233328.0795911-.1110106.1591809-.245807.238772-.4043935-.0159182.1427278-.0318362.2537367-.0477544.3330299-.0159182.1268692-.0318362.2458073-.0477544.3568178.222855-.2854556.4377476-.5788362.6446844-.8801506.4616282-.6184873.9073315-1.2369653 1.3371232-1.8554526l1.19386-1.7127254c.5571375-.8087911 1.1222256-1.6096408 1.6952812-2.4025733l.1910176-.2854542c1.0346839-1.3321265 1.8942545-2.7197374 2.5787377-4.1628744.079591-.1744451.2268323-.3726753.4417282-.5946963.2148959-.2220211.441727-.4242159.6805002-.6065903.2387732-.1823745.4218299-.297348.5491756-.3449239.3661189-.0634346.6844784-.000001.955088.1903028s.4377483.42818.5014212.7136356c.0477546.1585865.0477546.3171706 0 .4757571-.0955093.2537384-.1830581.4995438-.2626492.7374235.0318364 0 .0557134-.0079292.0716316-.0237879.2387732-.0634346.3860145-.0753284.4417282-.0356818.0557137.0396467.0994882.1784078.1313246.4162875.0318364.1585865.0318364.3171706 0 .4757571-.5889739 1.6175821-1.1938569 3.23514-1.8146672 4.8527221-.3183643.7929325-.6287648 1.5937822-.9312108 2.4025733-.222855.6026286-.4138707 1.2290358-.5730528 1.8792404-.1751004.6502046-.3740751 1.284541-.59693 1.9030283.0477546 0 .1034675-.0475752.1671404-.1427271.0159182.0158586.2308108-.2814866.6446844-.8920445.4138735-.610558.9232487-1.3796909 1.5281408-2.3074218.6048921-.927731 1.2097751-1.8514834 1.8146672-2.771285.8914199-1.3955611 1.5201799-2.3629241 1.8862988-2.9021182-.0159182-.2854556.0517332-.5550486.2029562-.808787.1512231-.2537384.3382593-.4995437.5611142-.7374235.143264-.1744451.2865257-.3568168.4297896-.5471206.0636729.0634346.1512217.1347974.2626492.2140907.0477547-.1110106.1114266-.2220194.1910176-.33303.1114275-.1110105.1830584-.2220194.2148948-.3330299.0318365-.1110106-.0159175-.2220194-.1432632-.33303.4297918-.5550527.8834541-1.1021678 1.3610005-1.6413619 1.0665205-1.1418227 1.9579265-2.3946371 2.6742465-3.7584809h.071631c.047755 0 .095509.0079292.143264.0237879l.382035.5709085c.318364.4599008.573052.9594407.76407 1.4986348.031837.0792932.039796.1744437.023877.2854542l.238773.3806057c.334282.4599008.596929.9594407.787947 1.4986348.047755.1903037.019898.4361091-.08357.7374234s-.234792.5867657-.393974.8563628c-.827747 1.5700061-1.6714 3.1399888-2.530983 4.709995l-1.241615 2.283634c-.031836.0634345-.063672.1347974-.095508.2140906-.063673.1268692-.143263.2616657-.238772.4043936.047754-.1268692.095508-.2616657.143263-.4043936.047755-.1427278.095508-.2933827.143263-.4519692h-.214895c-.270609.7929324-.5332559 1.5541361-.7879473 2.283634v-.0475757c-.0159183-.047576-.0238772-.1110096-.0238772-.1903029-.7959107 1.5224303-1.5838504 3.0210501-2.3638429 4.4959044-.0477546 0-.0875495-.0079292-.119386-.0237879h-.0477544l.0477544-.0951514c.0955093-.2378797.2228531-.5312603.3820352-.8801506-.2865278.1744452-.489482.3607815-.6088686.5590146s-.2188739.4083571-.298465.6303781c-.0318364.1110106-.0716313.2220194-.119386.33303.1432639-.0317173.2706077-.0555049.3820352-.0713636.0318365-.0158586.0716314-.0237878.119386-.0237878.0477547.3330316-.0079582.6541644-.1671404.963408-.1591821.3092437-.3501978.6145181-.5730528.9158324-.2069367.2854557-.3820345.5788363-.5252984.8801506h.0238772c-.0477546.0951519-.0955085.1823732-.1432632.2616664l-.6208072 1.3321198c.1432639-.4123249.2865257-.8325727.4297896-1.2607562-.0955093.0158586-.1830581.0237878-.2626492.0237878-.0318364.0951519-.0716314.1823732-.119386.2616664-.0955093.1903038-.1631607.3726755-.2029562.5471206-.0397955.1744452-.0198981.3409585.059693.499545-.2387732.1427278-.3899939.3013119-.4536668.475757-.0636729.1744452-.1034678.3488877-.119386.5233328 0 .1110106-.015918.2299486-.0477544.3568178-.0955093.3488903-.2228531.6977753-.3820352 1.0466656-.1432639.269597-.3024437.5312608-.477544.7849992-.0795911.1268692-.151222.2458072-.2148948.3568178.0318364 0 .0636724.0079292.0955088.0237878l.1432632.0475757c.1432639-.269597.2944847-.53919.4536668-.808787h.0238772l.0716316.0237879c-.1273457.222021-.2706075.4598972-.4297896.7136356-.1432639.2378797-.3104027.5074727-.5014212.808787.0318364.1903038.00398.4162861-.0835702.6779538s-.2984633.5431545-.6327458.8444688c.0318364-.0158586.0557134-.0237878.0716316-.0237878.0636728-.0158587.1034678-.0237879.119386-.0237879-.2865279.7929325-.6128463 1.5937822-.9789652 2.4025733-.4934646 1.0783881-.9033525 2.1527956-1.2296758 3.2232546-.3263234 1.070458-.4019338 2.129007-.2268334 3.175678-.7959107-.031717-1.3490603-.198231-1.6594655-.499545-.3104051-.301314-.4098925-.872217-.298465-1.712725.0159183-.206163.0397952-.412322.0716316-.618485-.079591-.047576-.1671399-.087222-.2626492-.118939-.2706096-.095152-.4934612-.229948-.6685616-.404393-.1751003-.174445-.2387722-.515401-.1910176-1.022878.1751004-1.3955611.5014188-2.8228181.9789652-4.2818137.6844832-2.1092003 1.448546-4.2183689 2.2922113-6.3275691.4934646-1.1893987 1.0028397-2.3867087 1.5281408-3.591966-.2865279.4599008-.6526413 1.0863081-1.0983512 1.8792405-.6367286 1.125964-1.3450784 2.323274-2.1250709 3.5919659-.7799924 1.2686919-1.5281372 2.3391346-2.2444568 3.2113603-.7163196.8722256-1.2973256 1.2766151-1.7430356 1.2131805-.1591821-.0475759-.262649-.0713636-.3104036-.0713636-.0318364-.0158586-.0517339-.0237878-.059693-.0237878h-.0238772c-.0079591 0-.0119386-.0079292-.0119386-.0237879zm21.1821453-8.1830217c-.238774-.1110105-.453666-.2140902-.644685-.3092421-.191018-.0951519-.389993-.1982316-.59693-.3092421-.222855.317173-.437747.626412-.644684.9277263-.509383.7136392-1.00284 1.4272676-1.480387 2.1409068-.493464.6977806-.907332 1.411409-1.241614 2.1409069.397955-.047576.811823-.1665141 1.241614-.3568178 1.78284-.7453565 3.50994-1.6889319 5.181353-2.8307546 2.13304-1.443137 3.93973-3.2034206 5.420124-5.2809036 1.002848-1.5065716 1.830582-3.0527666 2.483229-4.6386315l-.286526.0951515c-3.104052.8722256-5.841943 2.6562968-8.213757 5.3522671-.413874.4599008-.740192.9396177-.978965 1.4391651-.238774.4995474-.318363 1.042698-.238772 1.629468zm13.586127-8.0640824c.286527 1.3321264.063676 2.743525-.668562 4.2342379-.907338 1.6968754-1.91813 3.3620085-3.032405 4.9954493-1.225702 1.7285927-2.721992 3.1717081-4.488913 4.3293894-1.018766.6977805-2.053434 1.3400462-3.104036 1.9268162-.461628.269597-.92325.5471192-1.384878.8325748l-.573053.33303c-.429791.2378797-.851618.4995435-1.265491.7849992-.827747.58677-1.663441.8008585-2.507106.642272-.732238.0951519-1.357019-.0039632-1.87436-.2973482-.5173424-.2933849-.9988611-.6541638-1.4445711-1.0823473-.4616282-.4440422-.8595775-.9435821-1.19386-1.4986348-.222855-.3647489-.3501988-.7770676-.3820352-1.2369684-.222855-.2854557-.4377476-.5946947-.6446844-.9277263-.4775464-.808791-.5332593-1.7761541-.1671404-2.9021181.8118288-2.4739492 2.1648567-4.7892771 4.0591241-6.9460533.143264-.1903038.270608-.3885339.382035-.5946964.127346-.2220211.270608-.4281804.42979-.6184842.318364-.3647489.628764-.7215631.931211-1.0704534 1.002847-1.17354 2.037515-2.3193101 3.104036-3.4373449 1.06652-1.1180347 2.204655-2.152796 3.414439-3.1043149.652647-.4916181 1.408751-.7968925 2.268334-.9158323.859584-.1189399 1.528139-.0198248 2.005685.2973481.1751.1268692.382034.1982321.620807.2140907l1.098351.1427271c.588974.047576 1.16998.1189388 1.743036.2140907.366119.0792933.628766.2458066.787948.4995449.159182.2537384.270608.5550482.33428.9039385.063673.2854557.127345.5629778.191018.8325749.477546.2537383.76407.6977738.859579 1.3321198l.238772 1.0942413c.09551.3330316.183058.6739874.26265 1.0228777zm13.178897-8.468476c-.222855-.0475759-.457645.0118931-.704378.1784089-.246732.1665158-.41785.384569-.51336.654166.079592-.0634346.159181-.118939.238772-.166515zm-1.02672 4.2104501c.238773-.1585864.469584-.3171705.692439-.475757.795911-.5550527 1.58385-1.1100971 2.363843-1.6651498-.429792.1903038-.871516.4242153-1.325185.7017417-.453669.2775263-.843659.5510839-1.169983.8206809-.326323.2695971-.513359.4757564-.561114.6184842zm-3.724843 19.3395251c.636728-.3330316 1.24957-.6898458 1.838544-1.0704534-.1751.0634346-.358157.1189391-.549175.166515-.254692.0792932-.50142.2299481-.740194.4519692l-.382035.2854543zm5.754405-23.6213387c-.429792.1744451-.871515.4043921-1.325185.6898477-.453669.2854557-.847638.5629779-1.181921.8325749-.334282.269597-.517339.4757564-.549176.6184842.334283-.2378797.660601-.4757559.978966-.7136356.700401-.4757595 1.392833-.9515118 2.077316-1.4272712zm8.858441 2.2836339c.111428.317173.111428.646235 0 .987196-.111427.3409609-.270607.6700229-.477544.9871959-1.257538 1.9030378-2.602607 3.7822595-4.035246 5.6377213-.764075 1.1101054-1.910169 1.9109552-3.438317 2.4025733-.127346.0317173-.278567.0555049-.453667.0713635-.095509.0158587-.206935.0396463-.334281.0713636l.382035-.4043935c-.143264-.1268692-.278566-.2616657-.405912-.4043935-.461628-.4440422-.907332-.8880777-1.337123-1.3321199-.015919-.0317173-.015919-.0753279 0-.1308332.015918-.0555052.039795-.1110097.071631-.1665149.031837-.0555053.063673-.0911867.095509-.1070454-.286528-.3171729-.50142-.6264119-.644684-.9277263-.127346-.269597-.310403-.53919-.549176-.808787-.015918-.0317173-.019898-.0753279-.011939-.1308332.00796-.0555053.027857-.1110097.059693-.166515.031837-.0555052.063673-.0911867.095509-.1070453 1.719167-.6977805 3.072195-1.6889312 4.059124-2.9734817.318365-.3964662.636724-.8008557.955088-1.2131806-2.101204 1.1101054-3.995443 2.4184243-5.682773 3.9249959-1.575903 1.3797024-3.056275 2.8148886-4.44116 4.3056015-.923256.9673776-1.575893 1.9902451-1.95793 3.0686332 1.528148.4916181 3.191577.7532818 4.990335.7849991.827747.0317173 1.623646.1189386 2.38772.2616664.286528.047576.565092.126868.835702.2378786.27061.1110105.469584.2537362.59693.4281813.461628.6660633.851618 1.3717625 1.169983 2.117119.063673.1268692.127344.2616657.191017.4043935.015919.047576.023878.0951512.023878.1427272.302446.5233354.58101 1.0625213.835702 1.617574.047754.1268692.103467.2616657.16714.4043935.063673.1903038-.055712.448003-.358158.7731053s-.652642.5748722-1.050597.7493174c-.493465.1903037-.947127.4202507-1.361.6898477-.127346.0792933-.262649.1665145-.405913.2616664-.636728.5233354-1.392832.8960081-2.268334 1.1180291-.238773.0792933-.477543.2299482-.716316.4519693-.127345.1110105-.254689.206161-.382035.2854542-.127346.0792933-.254689.1506561-.382035.2140907-.063673.0317173-.119386.0634341-.167141.0951514l-.071631-.0713636c.015918-.0158586.023877-.031717.023877-.0475757l.107447-.1070453c.039796-.0396466.091529-.0991157.155202-.1784089-.143264.0634346-.270607.118939-.382035.166515-.302446.1110105-.573052.2140902-.811825.3092421v.0951514l.644685-.1189393v.0237879c.015918.0158586.031836.0396462.047754.0713635l-.42979.1903029c-.302446.1427278-.612846.2854535-.93121.4281813-.191019.0792933-.389994.1585853-.59693.2378786-.843666.3647489-1.703236.7136339-2.578738 1.0466655-1.034684.3647489-2.069352.6898464-3.104036.9753022-.413874.095152-.8357.174444-1.265492.237878-.366119.063435-.732232.134798-1.098351.214091-.413873.111011-.827741.237878-1.241614.380606-.206937.079293-.42183.150656-.644685.21409-.636728.222021-1.233652.344924-1.79079.368712-.557137.023788-1.050594-.138761-1.480386-.487651-.206937-.142728-.437748-.261666-.692439-.356818-.143264-.063434-.286526-.134797-.42979-.21409-.079591-.031718-.151221-.071364-.214894-.11894-.079591-.063434-.151222-.186337-.214895-.368711-.063673-.1823748-.127345-.3845696-.191018-.6065906-.079591-.2378798-.159181-.4638621-.238772-.6779539-.079591-.2140917-.175099-.3528528-.286526-.4162874-.047755-.047576-.079591-.1149742-.095509-.2021968-.015918-.0872225 0-.16255.047754-.2259846.493465-.6502046 1.018758-1.284541 1.575896-1.9030283.1751-.1903038.374075-.3726755.59693-.5471206l.286526-.2378785c.015918 0 .039795.0079292.071632.0237878.015918.0158587.031836.0237879.047754.0237879l-.286526.3806056-.191018.2378786c.015918.0158586.039795.031717.071632.0475757.127345-.1268692.254689-.2458073.382035-.3568178l.573053-.4757571c.015918 0 .039795.0079292.071631.0237878h.023878c-.031837.047576-.063673.087222-.095509.1189393-.222855.2537384-.461625.5312606-.716316.8325749h.047754c.047755 0 .103468-.0039646.16714-.0118939.063673-.0079294.127345-.0198232.191018-.0356818-.1751.3330316-.350198.6739874-.525298 1.0228777-.111428.2220211-.230813.451968-.358158.6898478.541219-.1585865 1.08243-.3092414 1.623649-.4519693 1.130193-.3171729 2.236493-.6422704 3.318931-.975302 2.769769-.8246497 5.475825-1.8554464 8.118248-3.092421 1.177948-.5550527 2.300165-1.1735307 3.366685-1.8554526-1.559984-.222021-2.944848-.6739857-4.154632-1.3559076-.509383-.2854557-.93121-.6343407-1.265492-1.0466656-.334282-.4123248-.644683-.8484311-.931211-1.3083319l-.143263-.2378786c-.286528-.4281835-.469585-.8880774-.549176-1.3796955-.111427-.1744451-.230812-.3488876-.358158-.5233328l-.143263-.2378785c-.652647-.9990949-.756113-2.125042-.310403-3.3778752.270609-.9673776.923246-1.8475194 1.95793-2.6404518.191019-.1427279.350198-.3092412.477544-.4995449.509383-.7294979 1.16202-1.3955511 1.95793-1.9981798.079591-.0792932.151222-.1585853.214895-.2378785.031837-.0792932.079591-.1546207.143263-.2259846.063673-.0713639.159181-.1387622.286527-.2021968.461628-.2537383.883454-.5550481 1.265491-.9039384l.42979-.3806057c.047755-.0317173.08755-.0753279.119386-.1308332.031836-.0555052.039795-.0991159.023877-.1308332-.063673-.1268691-.047755-.2299488.047755-.3092421.095509-.0792932.206935-.1347976.33428-.1665149.89142-.3647489 1.607729-.8642889 2.148948-1.4986348l.047755-.0475757c.143264-.1427279.270608-.2933828.382035-.4519692.206937-.2854557.469583-.5391903.787948-.7612114.079591-.0634346.159181-.118939.238772-.1665149.764074-.5391941 1.555993-1.038734 2.375781-1.4986348s1.715174-.777069 2.686185-.9515142c.573056-.0951519 1.146103-.1347979 1.719159-.1189393h.310403c.541219.0158587.93121.1546198 1.169983.4162875s.413871.5669421.525298.9158324c.079591.222021.159181.4361096.238772.642272l.143264.4757571c.318364.269597.541215.618482.668561 1.0466656.079591.2061624.151222.4202509.214895.642272zm22.686409-5.8993877c.063673-.0317173.135304-.0713633.214895-.1189393.143264-.1110105.294484-.1982318.453666-.2616664.222855-.0792932.437748-.1347976.644685-.1665149.095509-.0317173.191017-.0555049.286526-.0713636v-.1903028l-.525298.0951514-1.766913.3806056v.0237879c0 .0317173-.007959.0634341-.023877.0951514.254691.0634346.493461.1347975.716316.2140907zm.023877 0c-.127346.0475759-.262648.1030804-.405912.166515l-.334281.1427271c0-.0317173.007959-.0555049.023877-.0713636v-.0237878c-.1751.0475759-.358157.1030804-.549176.166515-.429791.1110105-.859577.2140902-1.289368.3092421-.302446.0634346-.596929.118939-.883457.1665149l-.382035.0475757c-.079591.0158587-.151222.0237879-.214895.0237879-.1751 0-.33428.039646-.477544.1189393-.191018.1268692-.397952.2458072-.620807.3568178-.302446.1427278-.58897.3132057-.859579.5114388-.27061.1982331-.493461.4638615-.668562.7968931-.143264.2695971-.294484.53919-.453667.8087871-.015918.0317173-.039795.0634341-.071631.0951514-.127346.2537383-.33428.4916145-.620807.7136356.015918-.0158587.023877-.0396463.023877-.0713636.095509-.1903038.191017-.3885339.286526-.5946963-2.722014 3.6633478-5.245013 7.3980035-7.569072 11.2040791s-4.321765 7.723103-5.993178 11.7511997c-.588973 2.1726349-.947128 3.7426175-1.074474 4.7099951-.031836.2378797-.071631.4598975-.119386.6660599-.015918.1110105-.055713.2418424-.119386.3924996-.063672.1506572-.131324.2814892-.202956.3924992-.071632.111011-.123365.166515-.155202.166515-.222855.031718-.453665.043611-.692438.035682-.238774-.007929-.397953-.075327-.477544-.202197-.206937-.5074764-.318363-1.07045-.334281-1.6889372 0-.0792933-.007959-.1506561-.023877-.2140907v-.0475757c-.159183 0-.302444-.0118938-.42979-.0356818s-.214895-.0753278-.262649-.1546211c-.191019-.5074767-.294486-1.0704503-.310404-1.6889376-.015918-.0792932-.023877-.1585853-.023877-.2378785-.015918-.2061624.015918-.4440386.095509-.7136356l.095509-.4281814c-.015919 0 .003979-.1110089.059693-.33303.055713-.222021.123365-.4876494.202956-.7968931.079591-.3092436.159181-.5986596.238772-.8682566s.135304-.459898.16714-.5709085l.907334-2.2360583c.62081-1.6810167 1.337119-3.3461498 2.148948-4.9954492 1.591821-3.0131433 3.303003-5.9945244 5.133598-8.9442331.015918-.0475759.039795-.0951511.071632-.1427271.923256-1.5224302 1.878334-3.0369084 2.865264-4.54348-.191019.0475759-.389994.1110095-.59693.1903028-.875502.3806075-1.743032.7770678-2.602615 1.1893927l-.095509.0475757c-1.06652.5074767-2.125066 1.0308043-3.175668 1.5699983-.111427.047576-.222853.1189388-.334281.2140907-.111427.0951519-.191017.1903024-.238772.2854543-.159182.3330316-.322341.5114387-.489482.5352267-.167141.0237879-.330301-.0356811-.489483-.1784089-.270609-.2220211-.461625-.5074725-.573053-.8563628-.111427-.3647489-.206935-.7532799-.286526-1.1656048-.063673-.0317173-.119386-.0713633-.16714-.1189393-.27061-.2220211-.461626-.5074724-.573053-.8563627-.206937-.6026287-.334281-1.2448943-.382035-1.9268162 0-.1268692.043774-.2854533.131324-.475757.08755-.1903038.194997-.3488879.322342-.4757571.652647-.6184873 1.345079-1.110098 2.077317-1.4748469.732238-.364749 1.472423-.6819172 2.220579-.9515142 2.960788-1.125964 5.905613-2.1250439 8.834565-2.9972696 1.273457-.3647489 2.260371-1.1100942 2.960772-2.2360582 2.069368-2.9179913 4.170541-5.8121513 6.303581-8.6825666.175101-.2378798.378055-.4638621.608869-.6779539.230814-.2140917.465604-.3845696.704377-.5114388.604892-.2695971 1.09437-.2537386 1.468448.0475757s.481524.7691374.322342 1.4034833c-.047754.1744452-.103467.3488877-.16714.5233328.461628-.0317173.811824.1030792 1.050597.4043935.238773.3013144.286527.713633.143263 1.2369684-.541219 2.0933416-1.607724 4.0677138-3.199545 5.9231756-.015918.0317173-.031836.0555049-.047754.0713636l-.047755.0475757c.477547-.0792933.947127-.1506561 1.408755-.2140907l.573053-.0951514c1.018766-.1744451 2.037516-.3171708 3.056282-.4281814 2.260386-.2378797 4.50482-.4281806 6.73337-.5709085 1.559985-.0792932 3.104028-.1030808 4.632177-.0713635.159182 0 .318362.0079292.477544.0237878.206937 0 .397952.0475753.573053.1427272.159182.0634345.318362.1030806.477544.1189392.127345.0158587.262648.0317171.405912.0475757.366119.0158587.716314.0792923 1.050597.1903029-.063673.0317173-.127345.0555049-.191018.0713635-.222855.0634346-.485501.1427267-.787947.2378786.079591.0475759.16714.0872219.262649.1189392.079591.047576.198976.1110096.358158.1903029-1.464476.4757594-2.777709.689848-3.939738.642272-.795911 0-1.599769-.0158584-2.411597-.0475757-.366119-.0317173-.740192-.0475757-1.122229-.0475757l.191018.0951514c.063673.0317173.143263.0792925.238772.1427271l-.143263.0475757c-.047755.0317173-.095509.0475757-.143264.0475757-.668565.0158587-1.345078.0396463-2.029562.0713636-.413873 0-.716315.1427257-.907333.4281814 1.353048-.1268692 2.698117-.2299489 4.035247-.3092421 1.575903-.0634346 3.127905-.079293 4.656054-.0475757h.477544c.206936.0158586.397952.0634338.573052.1427271.143264.0634346.294485.1110098.453667.1427271.143264.0158587.278567.0237879.405913.0237879.366119.0158586.724273.0872215 1.074474.2140906-.047755.0158587-.095509.0237879-.143264.0237879-.238773.0792932-.525296.1665145-.859579.2616664l.286527.1427271c.095509.047576.214894.1030804.358158.166515-1.464476.4757594-2.785668.689848-3.963616.642272-.79591.0158587-1.599768.0000003-2.411597-.0475757-.366119-.0158586-.740191-.031717-1.122228-.0475757.047754.0317173.087549.0555049.119386.0713636l.334281.166515c-.063673.0158586-.111427.031717-.143264.0475757-.063672.0317173-.111426.0475757-.143263.0475757-.684483.0317173-1.368956.0555049-2.053439.0713635-.573056-.0158586-.923251.2854512-1.050597.9039385l-2.363843.3330299c-.413873.047576-.843658.1030804-1.289368.166515.047754.1427278.047754.2656305 0 .3687117-.047755.1030813-.115406.1784087-.202957.2259847-.08755.0475759-.171119.0753281-.25071.0832574-.079591.0079294-.127345.0039648-.143263-.0118939-.127346-.1427278-.246731-.1942677-.358158-.154621-.111428.0396466-.222854.1070448-.334281.2021967-.063673.0634346-.127345.1189391-.191018.166515-.047755.0158587-.095508.0158587-.143263 0-.047755-.0158586-.103468-.0396463-.16714-.0713636l-.238772-.0951514c.159182-.0634346.298464-.1308328.417851-.2021967.119386-.0713639.274586-.1466914.465605-.2259846-.206937-.047576-.41785-.0396468-.632746.0237878s-.425809.1427267-.632746.2378785c-.286528.1585865-.553154.253737-.799886.2854543s-.449686-.0872208-.608869-.3568178c-.286527.3964662-.57703.6462362-.871517.7493174s-.58499.154621-.871518.154621-.557134.0396461-.811825.1189393zm-6.133372 20.2196757c-.238773-.1110105-.453666-.2140902-.644685-.3092421-.191018-.0951519-.389993-.1982316-.59693-.3092421-.222855.317173-.437747.626412-.644684.9277263-.509383.7136392-1.00284 1.4272676-1.480386 2.1409068-.493465.6977806-.907332 1.411409-1.241615 2.1409069.397956-.047576.811823-.1665141 1.241615-.3568178 1.78284-.7453565 3.50994-1.6889319 5.181352-2.8307546 2.133041-1.443137 3.939731-3.2034206 5.420125-5.2809036 1.002847-1.5065716 1.830582-3.0527666 2.483228-4.6386315l-.286526.0951515c-3.104052.8722256-5.841943 2.6562968-8.213757 5.3522671-.413873.4599008-.740192.9396177-.978965 1.4391651s-.318363 1.042698-.238772 1.629468zm13.586127-8.0640824c.286528 1.3321264.063676 2.743525-.668562 4.2342379-.907338 1.6968754-1.918129 3.3620085-3.032404 4.9954493-1.225703 1.7285927-2.721992 3.1717081-4.488914 4.3293894-1.018766.6977805-2.053434 1.3400462-3.104036 1.9268162-.461628.269597-.923249.5471192-1.384878.8325748l-.573052.33303c-.429792.2378797-.851618.4995435-1.265492.7849992-.827747.58677-1.663441.8008585-2.507106.642272-.732238.0951519-1.357018-.0039632-1.87436-.2973482-.517342-.2933849-.998861-.6541638-1.444571-1.0823473-.461628-.4440422-.859577-.9435821-1.19386-1.4986348-.222855-.3647489-.350199-.7770676-.382035-1.2369684-.222855-.2854557-.437748-.5946947-.644684-.9277263-.477547-.808791-.53326-1.7761541-.167141-2.9021181.811829-2.4739492 2.164857-4.7892771 4.059124-6.9460533.143264-.1903038.270608-.3885339.382035-.5946964.127346-.2220211.270608-.4281804.42979-.6184842.318364-.3647489.628765-.7215631.931211-1.0704534 1.002847-1.17354 2.037516-2.3193101 3.104036-3.4373449 1.06652-1.1180347 2.204655-2.152796 3.41444-3.1043149.652646-.4916181 1.40875-.7968925 2.268334-.9158323.859583-.1189399 1.528138-.0198248 2.005684.2973481.175101.1268692.382034.1982321.620808.2140907l1.098351.1427271c.588974.047576 1.16998.1189388 1.743035.2140907.366119.0792933.628766.2458066.787948.4995449.159182.2537384.270608.5550482.334281.9039385.063673.2854557.127345.5629778.191017.8325749.477547.2537383.76407.6977738.85958 1.3321198l.238772 1.0942413c.095509.3330316.183058.6739874.262649 1.0228777zm9.864352 2.925906 2.817509-1.1893927c3.199561-1.3479851 6.303566-3.0924103 9.312108-5.2333278 1.671413-1.221116 3.135866-2.6245853 4.393405-4.2104501-.748156-.2061625-1.520177-.340959-2.316088-.4043936-1.942022-.0951519-3.971564.1823703-6.088686.8325749-.779993.1427279-1.440589.5867634-1.981808 1.3321198-.509383.7612152-1.058553 1.5144897-1.647527 2.2598461-1.575903 2.077483-3.032397 4.2104392-4.369527 6.3989327-.047755.0634346-.08755.1347974-.119386.2140907zm7.473563-15.3431657h-.119386c-.302446.0317173-.525297.0594695-.668561.0832575s-.25071.0713632-.322342.1427271-.147243.1863374-.226834.3449239c.493465-.1268692.978963-.2616657 1.456509-.4043935.461629-.1268692.915291-.2458073 1.361001-.3568178v-.0237879c0-.0475759.007959-.0872219.023877-.1189392-.159182.0317173-.318362.0713633-.477544.1189392-.350201.0951519-.692437.1665148-1.02672.2140907zm7.998863-.4519692h-5.324616c2.021613-.3488903 3.796467-.3488903 5.324616 0zm.186238-.6436387c-.109608-.031487-.211482-.0706776-.305624-.1175726-.063673-.0317173-.127345-.0555049-.191018-.0713636 1.432639.0158587 2.491184.5471154 3.175668 1.5937862.302446.4757595.50142 1.0070162.59693 1.5937862.1751.1585865.326321.3409582.453666.5471206.318365.5391941.529278 1.1299199.632746 1.7721951.103469.6422753.163161 1.2964347.179079 1.962498-.015918 1.395561-.62876 2.783172-1.838544 4.1628744-1.177948 1.3638438-2.483222 2.5849414-3.915861 3.6633295-1.018766.7612151-2.053434 1.4827728-3.104036 2.1646947-.955093.6026286-1.934048 1.1656022-2.936896 1.6889376-.3502.1903038-.724273.277525-1.122228.2616664.095509-.047576.183058-.0951512.262649-.1427272l.382035-.2378785c0-.0475759-.007959-.0951512-.023877-.1427271l-.477544.2378785c-.604892.3013143-1.265488.6264118-1.981808.975302.175101 0 .314383.0039646.417851.011894.103469.0079293.202956.0118939.298465.0118939-.015918.0475759-.023877.1030804-.023877.166515-.493464.1903037-.986922.3885339-1.480386.5946963-.366119.1427278-.732233.2933827-1.098351.4519692 0-.0158586.015918-.1189383.047754-.3092421-.079591.0158587-.151222.0317171-.214895.0475757-.44571.1268692-.875495.2814887-1.289369.4638632-.413873.1823744-.819782.4717904-1.217737.8682566-.047754.047576-.111426.0792928-.191017.0951515.971011.4123248 1.934048.8325727 2.889141 1.2607562 1.846513.8246497 3.67708 1.6651455 5.491756 2.5215125 1.321212.6026286 2.753829.9753013 4.297896 1.1180291l.811825.1427272c.111427.0158586.230812.0396462.358158.0713635-.09551.047576-.191017.1030804-.286527.166515-.238773.1427278-.477543.2933827-.716316.4519692-.047754.0317173-.095508.0792925-.143263.1427271-.047755.0317173-.08357.0634342-.107447.0951514-.023878.0317173-.051734.0475758-.083571.0475758-.159182-.0158587-.318361-.0237879-.477544-.0237879-.684483-.0317173-1.33712-.0951509-1.95793-.1903028-.636728-.1110106-1.24957-.2537363-1.838544-.4281814.397955.1903038.787945.3806047 1.169982.5709085 1.321212.58677 2.761789.9594426 4.321774 1.1180291.270609.0317173.533256.0713633.787947.1189393.127346.0317173.246731.0555049.358158.0713636-.079591.0634345-.16714.118939-.262649.1665149-.238773.1427279-.477543.2933828-.716316.4519692-.063673.047576-.119386.0951512-.16714.1427272-.031837.0475759-.063673.0832573-.095509.1070453-.031837.023788-.055713.0356818-.071632.0356818-.159182 0-.326321-.0079292-.501421-.0237879-.668565-.0158586-1.321202-.0792923-1.95793-.1903028-.955093-.1585865-1.862418-.3964626-2.722001-.7136356-.89142-.3647489-1.766909-.75328-2.626492-1.1656048-.636729-.3013144-1.281407-.5867657-1.934053-.8563628-.652647-.269597-1.313243-.5233316-1.981808-.7612113l-1.002842-.3806057c-.031837-.0158586-.063673-.0396462-.095509-.0713635l-.095509-.0475757c-.095509-.047576-.198976-.0951512-.310404-.1427271-.254691-.1427279-.533256-.2458075-.835702-.3092421-.3502-.0317173-.716314-.0475757-1.098351-.0475757h-.501421c.015918-.0317173.023877-.0634342.023877-.0951515.015918-.0317173.023877-.0555049.023877-.0713635.047755-.0158587.08755-.0317171.119386-.0475757.111428-.047576.191018-.0792928.238772-.0951514-1.544066-.0951519-3.127905-.1823732-4.751562-.2616664-.015919.0317173-.031837.0713633-.047755.1189392l-.047754.0951514.262649.0237879.811825.1427271c-.015918 0-.023877.0079292-.023877.0237879v.0237878h-.214895c-.143264 0-.286526-.0079292-.42979-.0237878-.350201-.0792933-.616827-.0673995-.799886.0356818-.18306.1030812-.378055.3449219-.584992.7255295-.095509.1427278-.191017.2933827-.286526.4519692-.031836.0634346-.071631.1268683-.119386.1903028l-.238772-.0475757h-.191018c.047755-.0792932.095509-.1665145.143264-.2616664.031836-.0475759.071631-.1030803.119386-.1665149-.047755-.0158587-.08755-.0317171-.119386-.0475757-.031837.0475759-.071632.0951511-.119386.1427271-.09551.1110105-.151223.2140902-.167141.3092421s0 .2061607.047755.3330299c.031836.0792933.063672.1665145.095508.2616664-.477546.6977806-1.026716 1.4907011-1.647526 2.3787854-.031837 0-.055714-.0079292-.071632-.0237878h-.023877c.063673-.1110106.119386-.2220195.16714-.33303.047755-.0634346.08755-.1268682.119386-.1903028l-.095509-.0475757h-.023877c-.047754.0951519-.095508.1823731-.143263.2616664-.159182.269597-.318362.5471192-.477544.8325748l-.382035.6660599c-.238773.5391941-.541215 1.038734-.907334 1.4986348-.477546.5709114-.899372 1.1576726-1.265491 1.760301-.111428.174445-.222854.340959-.334281.499545-.27061.444042-.509379.896007-.716316 1.355908-.143264.285455-.294485.578836-.453667.88015-.27061.459901-.565092.919795-.883456 1.379696l-.095509.142727c-.031837.047576-.075611.083257-.131325.107045s-.107447.043611-.155202.05947c-.1751-.015859-.342239-.10308-.501421-.261666-.159182-.158587-.270608-.352852-.334281-.582803-.063672-.22995-.055713-.440074.023878-.630378.159182-.34889.32632-.697775.501421-1.046665.604892-1.332127 1.265488-2.648375 1.981807-3.9487842-.095509.1268692-.183058.2616657-.262649.4043935-.270609.4281835-.517338.872219-.740193 1.3321197-.143264.301314-.294485.594695-.453667.880151-.270609.475759-.557133.943582-.859579 1.403483-.047755.047576-.08755.095151-.119386.142727-.015918.031717-.055713.063434-.119386.095152-.063673.031717-.111427.047575-.143263.047575-.191019 0-.366116-.083256-.525299-.249772-.159182-.166516-.270608-.360781-.33428-.582803-.063673-.222021-.055714-.436109.023877-.642272l.525298-1.046665c.620811-1.363844 1.297324-2.7118089 2.029562-4.0439353.779993-1.3797024 1.599768-2.7355965 2.459352-4.067723l.811825-1.2845441c-.127346-.2061625-.25469-.4043926-.382036-.5946964-.047754-.0792932-.095508-.1506561-.143263-.2140906-.127345-.2220211-.127345-.4202513 0-.5946964-.095509-.1427278-.191017-.2775243-.286526-.4043935-.206937-.3013143-.405912-.6105533-.59693-.9277263l-.143263-.2378785c-.127346-.1903038-.139285-.3647463-.035816-.5233328.103468-.1585865.274586-.2854538.51336-.3806057.875501-.3013143 1.735072-.5391905 2.578737-.7136356 1.209784-.1744451 2.212617-.9356488 3.008527-2.283634.254692-.4123248.525297-.8325727.811825-1.2607562.191019-.2854557.382035-.5788363.573053-.8801506.254692-.3806076.50142-.7691386.740193-1.1656048.366119-.634346.748151-1.252824 1.146106-1.8554526.222855-.317173.437748-.6422704.644684-.975302.652647-1.0942468 1.408751-2.1488311 2.268334-3.1637846.222855-.2537383.413871-.5391897.573053-.8563627.063673-.1268692.135304-.2616657.214895-.4043935l-.095509-.0951514c-.143264.1268691-.294485.2537364-.453667.3806056-.477546.3488903-.947126.7215629-1.408754 1.1180291-.047755.0317173-.083571.0792926-.107448.1427272s-.035816.1268682-.035816.1903028.007959.118939.023878.166515c.063672.1427278.067652.2537367.011938.3330299-.055714.0792933-.16316.1506561-.322342.2140907h-.023877c-.015918 0-.031836.0079292-.047755.0237879-.716319.3330316-1.189879.4519697-1.420693.3568178s-.362137-.4678246-.393974-1.1180292c-.031836-.2854556-.047754-.5629778-.047754-.8325748 0-.0792933-.007959-.1585853-.023877-.2378786 0-.0317173.003979-.0673987.011938-.1070453s.019898-.0673989.035816-.0832575c.334282-.3488903.620806-.7374213.859579-1.1656048.318364-.6184873.795904-1.1576733 1.432632-1.6175741 1.78284-1.17354 3.613407-2.1726198 5.491756-2.9972696.461628-.222021.931209-.4995432 1.408755-.8325748.206937-.1427279.429788-.2854536.668562-.4281814.031836.1903038.115405.2933834.25071.3092421.135305.0158586.322341-.0158582.561114-.0951514.732238-.2220211 1.456506-.4043928 2.172826-.5471207.302446-.0792932.604887-.1506561.907333-.2140906-.015918.0475759-.023877.0951511-.023877.1427271-.127346.0317173-.24673.0634341-.358158.0951514-.143264.0475759-.278567.087222-.405912.1189393.302446-.047576.604887-.1110096.907333-.1903029.366119-.0951519.720294-.1665147 1.062536-.2140907.342241-.0475759.672539-.0158591.990903.0951515-.015918-.0158587-.023877-.0317171-.023877-.0475757-.015918 0-.027856-.0079293-.035816-.0237879-.007959-.0158587-.019897-.0237879-.035815-.0237879h-.167141c-.031836-.0158586-.063672-.0237878-.095509-.0237878.397956-.1268692 1.006818-.1903028 1.826606-.1903028.819776 0 1.587808.0555028 2.304118.16651zm21.927117 8.8980239c.143264.5709114.214895 1.1893894.214895 1.8554526v.1427272c0 .1585864-.055713.3409582-.16714.5471206-.047755.0792932-.08755.1665145-.119386.2616664-.063673-.0317173-.119386-.0634341-.167141-.0951514-.143264-.047576-.262649-.1110096-.358158-.1903029-.286528-.3647489-.732231-.5590144-1.337123-.5828024s-1.233652.1387608-1.886299.487651c-2.642423 1.5700062-5.038078 3.5126615-7.187037 5.8280242-.318364.3488903-.652642.7136337-1.002843 1.0942413-.063672.2537383.023876.4202517.26265.4995449.111427 0 .222853.0079292.33428.0237878.09551-.0158586.262648-.0555046.501422-.1189392.318364-.0792933.688457-.1665145 1.110289-.2616664.421833-.0951519.791926-.1704794 1.11029-.2259846.318365-.0555053.493462-.0673991.525299-.0356818l.047754.0237878c.031837.0158587.07959.0356817.143263.0594697s.135304.0515402.214895.0832575c.063673.0158586.127345.0356816.191018.0594696s.115406.043611.155202.0594696c.039795.0158587.051734.0317171.035815.0475757.031837.0158587-.055712.0594693-.262649.1308332-.206937.071364-.461624.1546206-.76407.2497725-.286528.0951519-.557134.1863378-.811825.2735603-.254692.0872226-.429789.16255-.525299.2259846.27061-.0475759.557134-.1189388.85958-.2140906.206936-.047576.393973-.0911866.561114-.1308332.167141-.0396467.282546-.0515405.346219-.0356818-.031836.0158586-.019898.0237878.035816.0237878s.147242-.0118938.274588-.0356817c.127346-.023788.270607-.0515402.42979-.0832575.191018-.047576.378054-.087222.561114-.1189393.183059-.0317173.314382-.0515403.393974-.0594696.079591-.0079294.079591.0118936 0 .0594696.700401-.2378797 1.205797-.3607824 1.516202-.3687117.310405-.0079294.489482.0594689.537237.2021967.047754.1427279.019898.321135-.08357.5352267-.103469.2140918-.210915.4162865-.322343.6065903-.079591.1268692-.143263.2299489-.191017.3092421-.047755.0792932-.055714.1268685-.023877.1427271-.509383.1903038-1.221713.4559322-2.13701.7968931-.915297.340961-1.882314.6938106-2.90108 1.0585595l-3.939738 1.4272712c-.079591.0317173-.16714.0634342-.262649.0951515-.382037.1585864-.756109.2854537-1.122228.3806056-.254692.047576-.525297.0713636-.811825.0713636h-.501421l-.334281.5233328c-.827747 1.125964-1.575892 2.3312032-2.244457 3.6157537.923256.0317173 1.902212-.1189376 2.936896-.4519692 2.769769-.903943 5.483783-2.1726158 8.142125-3.8060566.095509-.0634346.198976-.118939.310404-.166515l.191017-.0475757c.047755 0 .095509-.0079292.143263-.0237878l-.143263.3330299c-.047755.1268692-.111426.2775241-.191017.4519692.079591-.0317173.151221-.0555049.214894-.0713635.143264-.0317173.278567-.0713633.405913-.1189393.111427-.0475759.230812-.1030804.358158-.166515.047754-.0158586.095508-.0396462.143263-.0713635l.047754.0951514c.015919.0317173.023878.0555049.023878.0713635-.509383.3330317-1.026717.6660583-1.552018.9990899l-1.480387.9515142c.015918.0158586.023877.0396462.023877.0713635.015919.0158587.023878.0317171.023878.0475757.095509-.0475759.191017-.0872219.286526-.1189392.636728-.2854557 1.281406-.5629779 1.934053-.8325749v.1903028l-.429789.2378785c-.397956.1744452-.779987.3726753-1.146106.5946964-.095509.0475759-.175099.1229034-.238772.2259846s-.119386.2021963-.16714.2973482c-.063673.0951519-.163161.2021961-.298465.321136-.135305.1189399-.278567.2220195-.42979.3092421s-.274587.1308332-.370097.1308332c-.047754 0-.095508.0118938-.143263.0356818-.047755.0237879-.095508.0515402-.143263.0832575l-.095509.0475757-1.146106.6184842-.286526.1427271c.015918.0317173.031836.0872217.047754.166515l.023878.0237878c1.719167-.7612151 3.42239-1.6492861 5.109721-2.6642396.111427-.0634346.222853-.118939.33428-.166515.047755-.0158586.111427-.031717.191018-.0475757.031836-.0158586.071631-.0237878.119386-.0237878-.095509.222021-.198976.4757556-.310404.7612113.079591-.0158587.151222-.0317171.214895-.0475757.143264-.047576.278567-.087222.405913-.1189393.111427-.0475759.222853-.1030804.33428-.166515.063673-.0317173.119386-.0555049.167141-.0713635.015918.0158586.023877.0396462.023877.0713635l.047754.0951514-1.337123.8563628c-.573056.3647489-1.138144.7294923-1.695281 1.0942412 0 .0158587.007959.0317171.023877.0475758v.0475757c.748156-.317173 1.488342-.6343412 2.22058-.9515142 0 .047576.007959.0951512.023877.1427271v.0713636c-.159182.0634346-.310403.1347974-.453667.2140907-.382037.1903038-.764068.3885339-1.146105.5946963-.079592.047576-.155202.1229034-.226834.2259846-.071632.1030813-.131324.2021963-.179079.2973482-.047755.1110105-.139283.2220194-.274588.33303-.135304.1110105-.282546.2101256-.441728.2973481-.159182.0872226-.286526.1308332-.382035.1308332-.031837.0158587-.071631.0317171-.119386.0475757-.047755.0158587-.095509.0396463-.143263.0713636-.047755.0317173-.08755.0555049-.119386.0713636-.366119.1903037-.740192.3885339-1.122229.5946963l-.286526.1427271c.015918.047576.031836.1030804.047754.166515s.031836.1427266.047755.2378785c.015918.0158587.023877.0317171.023877.0475757-.079591.0158587-.151222.0237879-.214895.0237879-.127346-.0158586-.222853-.0000002-.286526.0475757-.652647.5074768-1.329161.864291-2.029562 1.0704534-.366119.1268692-.732233.2695949-1.098352.4281814-.095509.0475759-.198976.0713636-.310403.0713636-.111428 0-.218874.019823-.322342.0594696-.103469.0396466-.202956.1466909-.298465.321136-.031837.0317173-.103468.0634341-.214895.0951514-.111428.0317173-.238771.0555049-.382035.0713636-.143264.0158586-.270608.031717-.382036.0475757-.779992.0792932-1.520178.0634348-2.220579-.0475757-.557138-.1110105-.994882-.3449221-1.313246-.7017417s-.604888-.7572445-.859579-1.2012866l-.238772-.3806057c-.366119-.539194-.636725-1.1338844-.811825-1.784089-.079591-.1268692-.159181-.2458073-.238772-.3568178-.382037-.5550527-.652643-1.1814599-.811825-1.8792405-.127346-.6819218-.055715-1.3915857.214895-2.1290129.270609-.7374271.628764-1.4629494 1.074474-2.1765886.779992-1.3321265 1.615686-2.6404453 2.507106-3.9249959 1.68733-2.4263732 3.581569-4.7179135 5.682773-6.8746897.143264-.1268692.302444-.2458073.477544-.3568178.127346-.0792932.246731-.1585853.358158-.2378785l1.002843-.8563628c.573056-.4916181 1.154062-.9673704 1.743035-1.4272712.09551-.0792932.198977-.1665145.310404-.2616664 1.225703-.9673775 2.475263-1.8713069 3.748721-2.7118153 1.146111-.6977805 2.284246-.9911611 3.414439-.8801506.477547.0475759.811824.2220185 1.002843.5233328.191018.3013143.342239.6422701.453666 1.0228777v.0475757c.079591.2220211.135304.4598972.167141.7136356.238773.1427279.42183.340958.549175.5946964.127346.2537383.230813.5233313.310404.808787z" transform="translate(-30 -52)"/></svg>